/* XPM */
static char *editcopy[] = {
/* columns rows colors chars-per-pixel */
"32 32 155 2",
"   c black",
".  c #191000",
"X  c #221700",
"o  c #2E2300",
"O  c #452E00",
"+  c #433200",
"@  c #493000",
"#  c #553800",
"$  c #5D4600",
"%  c #6B5000",
"&  c #724B00",
"*  c #7D5E00",
"=  c #6E694F",
"-  c #7E795F",
";  c #865900",
":  c #8A5C00",
">  c #8B6800",
",  c #936200",
"<  c #926D00",
"1  c #926B1A",
"2  c #967000",
"3  c #9B721D",
"4  c #9B7625",
"5  c #9E792A",
"6  c #A47C00",
"7  c #AA7D00",
"8  c #A1761A",
"9  c #A57816",
"0  c #A4791D",
"q  c #AD8200",
"w  c #B28500",
"e  c #AE8530",
"r  c #B99626",
"t  c #97906D",
"y  c #B18D48",
"u  c #B49049",
"i  c #B89542",
"p  c #BA9C4D",
"a  c #BD9E52",
"s  c #BFA053",
"d  c #B8AE78",
"f  c #BEB47E",
"g  c #C49300",
"h  c #C89600",
"j  c #C19D2C",
"k  c #C1A43F",
"l  c #C09E4E",
"z  c #CFB457",
"x  c #C9B159",
"c  c #CAB573",
"v  c #D4BF7C",
"b  c #FFDF62",
"n  c #FFE064",
"m  c #FFE16D",
"M  c #FFE372",
"N  c #FFE479",
"B  c #A19D8E",
"V  c #ABA89A",
"C  c #BEB580",
"Z  c #BDB488",
"A  c #B8B496",
"S  c #AEADAA",
"D  c #B3AFA1",
"F  c #BCBBB6",
"G  c #BFBFB9",
"H  c #C0B680",
"J  c #C4BA85",
"K  c #C6BD8B",
"L  c #CBB589",
"P  c #C8BE88",
"I  c #C3BC90",
"U  c #CBC18C",
"Y  c #CCC493",
"T  c #D7CB8C",
"R  c #DAC786",
"E  c #D8C789",
"W  c #DAC98B",
"Q  c #D0C690",
"!  c #D4CA94",
"~  c #D4CC9B",
"^  c #D8CE98",
"/  c #DCD29C",
"(  c #C6C3B7",
")  c #C8C6BE",
"_  c #D5C5A5",
"`  c #DBC8A1",
"'  c #DBD4A2",
"]  c #DED9AE",
"[  c #D9D5B1",
"{  c #E0CC82",
"}  c #E8D98B",
"|  c #E8D991",
" . c #E1D7A1",
".. c #E5DBA5",
"X. c #E4DCAB",
"o. c #E8DDAA",
"O. c #E1DCB2",
"+. c #E1DCB8",
"@. c #FFE683",
"#. c #FFE78A",
"$. c #FFE885",
"%. c #FFE88D",
"&. c #FFE992",
"*. c #FFEC9D",
"=. c #FFF09F",
"-. c #ECE2AC",
";. c #E5E0B6",
":. c #E5E1B8",
">. c #EBE4B6",
",. c #EAE5BC",
"<. c #F0E5A8",
"1. c #FFEDA3",
"2. c #FFEDA9",
"3. c #F1E8B8",
"4. c #FFEFB1",
"5. c #FFF1A5",
"6. c #FFF2AD",
"7. c #FFF2B4",
"8. c #FFF2BC",
"9. c #CAC8C2",
"0. c #D6D4CB",
"q. c #DFDAC5",
"w. c #D4D2D0",
"e. c #E0D7C5",
"r. c #E4DAC3",
"t. c #E8DEC7",
"y. c #E0DFD3",
"u. c #E6E2C2",
"i. c #E8E1C5",
"p. c #EBE3CB",
"a. c #EEE9C2",
"s. c #E8E6DC",
"d. c #F3EDC3",
"f. c #F2EDCB",
"g. c #F7F2CD",
"h. c #FFF3C3",
"j. c #FFF4CA",
"k. c #FFF8C5",
"l. c #FFF8CD",
"z. c #FDF5D2",
"x. c #FFF7D8",
"c. c #FFF9D4",
"v. c #FFF9DC",
"b. c #E9E8E7",
"n. c #F3EFE3",
"m. c #F2F0E3",
"M. c #F4F2EA",
"N. c #FBF7E6",
"B. c #FEF9E3",
"V. c #FFFBEC",
"C. c #F4F4F3",
"Z. c #F8F7F6",
"A. c #FEFCF4",
"S. c #FEFEFC",
"D. c None",
/* pixels */
"D.D.D.D.D.D.D.D.D.D.D.D.h g g g g g g g g g g w *     D.D.D.D.D.",
"D.D.D.D.D.D.D.D.D.D.D.D.g z.z.g.g.g.g.g.g.z.g.R 2     D.D.D.D.D.",
"D.D.D.D.D.D.D.D.D.D.D.D.g z.d.3.3.3.3.3.3.>.f.g.z <     D.D.D.D.",
"D.D.D.D.D., : ; , : : : 7 a i a R -.-.-.-.' m.u.g.j >     D.D.D.",
"D.D.D.D., u y y L L L L ` t.t.e.e v -.-.-.Y b.S.+.d.q     D.D.D.",
"D.D.D.D., S.S.S.S.S.S.S.S.Z.b.S.e.i W o.o.K w.S.A.u.q     D.D.D.",
"D.D.D.D., S.S.S.A.S.S.S.S.M.w.S.S._ a E ..K 0.S.S.q.7     D.D.D.",
"D.D.D.D., S.A.V.A.A.A.V.A.n.9.S.S.C._ a ..Y t = - A 6     D.D.D.",
"D.D.D.D., A.A.V.A.V.V.V.A.n.9.S.S.S.Z.3 ' ' K Z A ] 7     D.D.D.",
"D.D.D.D., A.V.B.V.V.B.V.V.n.( F S S G 5 ' | / / X.f.q     D.D.D.",
"D.D.D.D., A.V.x.B.x.V.B.N.B.e.D B V ) 3 / / ^ ^ ' a.q     D.D.D.",
"D.D.D.D., V.N.N.B.B.B.v.v.N.z.p.i.p.n.8 ^ / ! Q ' a.q     D.D.D.",
"D.D.D.D., B.B.x.v.x.z.j.j.x.z.z.c.B.B.0 ! ! ! ^ ' ,.q     D.D.D.",
"D.D.D.D., B.h.h.z.z.x.x.z.z.z.h.j.x.v.0 ! Q Y ! ~ ,.q     D.D.D.",
"D.D.D.D., v.c.k.x.h.j.j.j.z.8.h.k.j.v.0 U T U U ~ ,.q     D.D.D.",
"D.D.D.D., v.k.z.h.h.h.j.8.j.h.h.j.k.v.0 U U U U Y ;.q     D.D.D.",
"D.D.D.D., x.h.8.8.h.j.8.8.4.h.4.8.h.x.8 P H P P ~ ;.q     D.D.D.",
"D.D.D.D., v.h.4.4.8.8.4.1.z.h.8.4.h.c.8 H J H J Y ;.q     D.D.D.",
"D.D.D.D., c.2.z.j.4.*.1.1.8.2.2.*.2.l.8 J J H J U ] q     D.D.D.",
"D.D.D.D., l.h.2.4.4.1.%.1.&.2.4.8.7.k.8 f d f H U ] q     D.D.D.",
"D.D.D.D., z.8.#.1.4.1.*.1.1.1.*.N 4.l.8 f f C K ~ :.q     D.D.D.",
"D.D.D.D., 8.&.4.#.%.4.&.@.#.%.%.&.2.l.8 K K Y ~ ] ,.6     D.D.D.",
"D.D.D.D., h.&.#.*.1.1.%.N N #.&.*.1.l.0 ' ] T x r 6 %     D.D.D.",
"D.D.D.D., 4.4.%.*.#.b &.N M b M 2.1.k.9 k 7 > $ o         D.D.D.",
"D.D.D.D., 7.&.N 5.&.N @.*.b N M N =.k., +                 D.D.D.",
"D.D.D.D., 6.N N M M &.#.N 2.$.%.8.6.<.&               D.D.D.D.D.",
"D.D.D.D., 5.&.7.n $.m M 1.7.7.o.c 5 & @       D.D.D.D.D.D.D.D.D.",
"D.D.D.D., 7.*.m %.=.&.7.} p 1 % # X         D.D.D.D.D.D.D.D.D.D.",
"D.D.D.D., 6.5.5.5.| a 1 & + .               D.D.D.D.D.D.D.D.D.D.",
"D.D.D.D., 6.-.a 1 & O .                 D.D.D.D.D.D.D.D.D.D.D.D.",
"D.D.D.D.; : % O .                 D.D.D.D.D.D.D.D.D.D.D.D.D.D.D.",
"D.D.D.D.                    D.D.D.D.D.D.D.D.D.D.D.D.D.D.D.D.D.D."
};
