/* XPM */
static char *editcut[] = {
/* columns rows colors chars-per-pixel */
"32 32 214 2",
"   c #000000",
".  c #0B0B0B",
"X  c #181300",
"o  c #1D190B",
"O  c #131313",
"+  c #1B1B1B",
"@  c #211E11",
"#  c #26231A",
"$  c #2A2513",
"%  c #2E2912",
"&  c #2E2A19",
"*  c #372E0B",
"=  c #302A12",
"-  c #312C1B",
";  c #3A320F",
":  c #3C3415",
">  c #3C351B",
",  c #232323",
"<  c #2B2922",
"1  c #2C2C2C",
"2  c #302E26",
"3  c #353120",
"4  c #3F3B2D",
"5  c #313131",
"6  c #3A3A3A",
"7  c #423814",
"8  c #493E17",
"9  c #413D2F",
"0  c #423F32",
"q  c #4F4319",
"w  c #5C4A00",
"e  c #5F4F0D",
"r  c #514410",
"t  c #554813",
"y  c #4E472C",
"u  c #444136",
"i  c #4A483F",
"p  c #534B2B",
"a  c #504B37",
"s  c #514C3A",
"d  c #654F04",
"f  c #604F0B",
"g  c #665200",
"h  c #675509",
"j  c #6B5405",
"k  c #6C5807",
"l  c #6C590B",
"z  c #745B04",
"x  c #715D0A",
"c  c #7B5B02",
"v  c #625B3B",
"b  c #7E6815",
"n  c #6C643E",
"m  c #4D4B42",
"M  c #494949",
"N  c #504D43",
"B  c #54534C",
"V  c #515151",
"C  c #5D5B54",
"Z  c #656048",
"A  c #736A44",
"S  c #726C54",
"D  c #77725B",
"F  c #696968",
"G  c gray50",
"H  c #826203",
"J  c #806609",
"K  c #836907",
"L  c #8D6A03",
"P  c #9A6F00",
"I  c #9B7005",
"U  c #9E730E",
"Y  c #9C7511",
"T  c #85732C",
"R  c #88783B",
"E  c #AE7C00",
"W  c #A87B13",
"Q  c #847B53",
"!  c #827D64",
"~  c #9C862E",
"^  c #A98A1F",
"/  c #B28D0A",
"(  c #B88D00",
")  c #B2821A",
"_  c #B18E1B",
"`  c #B3941C",
"'  c #A88E2C",
"]  c #A28C36",
"[  c #AE9224",
"{  c #89815E",
"}  c #87826D",
"|  c #858174",
" . c #888370",
".. c #8E8A7D",
"X. c #928C71",
"o. c #A28E44",
"O. c #AA9F74",
"+. c #B9A456",
"@. c #BDA85B",
"#. c #B2A068",
"$. c #C28700",
"%. c #CC8E00",
"&. c #C29A00",
"*. c #C4962F",
"=. c #CCA100",
"-. c #D6A800",
";. c #D1AC1B",
":. c #DDB31A",
">. c #D2A922",
",. c #D4AE2B",
"<. c #DBA12E",
"1. c #DBA433",
"2. c #DDB428",
"3. c #D2B23B",
"4. c #E6A200",
"5. c #E8A509",
"6. c #EAAF00",
"7. c #EFAC1E",
"8. c #F5A100",
"9. c #FFAD02",
"0. c #FCAF0D",
"q. c #FCB005",
"w. c #FFB60C",
"e. c #FFBD00",
"r. c #FFBD16",
"t. c #E3B432",
"y. c #E8BF3C",
"u. c #F6BE2F",
"i. c #C6A949",
"p. c #D9A948",
"a. c #D8AB52",
"s. c #DBBA45",
"d. c #C5B162",
"f. c #ECB74D",
"g. c #EFB841",
"h. c #EFBE4A",
"j. c #EABA55",
"k. c #FDC006",
"l. c #FFC10B",
"z. c #FFC800",
"x. c #FFC90D",
"c. c #FAC113",
"v. c #FBC11C",
"b. c #FDC910",
"n. c #EDC233",
"m. c #F5C32D",
"M. c #FFC728",
"N. c #F4C537",
"B. c #F6C63A",
"V. c #F5CB36",
"C. c #FFD73D",
"Z. c #E9C659",
"A. c #EAC85A",
"S. c #FFDA4B",
"D. c #FFDD5D",
"F. c #E9CD6B",
"G. c #FFD560",
"H. c #FFE06C",
"J. c gray56",
"K. c #959595",
"L. c gray62",
"P. c #A6A18A",
"I. c #A8A69E",
"U. c #AEA895",
"Y. c #B3AC8F",
"T. c #B8AF8B",
"R. c #B4AD96",
"E. c #B8B199",
"W. c #A4A4A4",
"Q. c #AAAAAA",
"!. c #B0ADA3",
"~. c #BBB6A3",
"^. c #B1B1B1",
"/. c #B9B9B6",
"(. c #BBBBBA",
"). c #C5BC9D",
"_. c #C2BCA2",
"`. c #C1BEB5",
"'. c #D2C38E",
"]. c #DCC78C",
"[. c #C7C0A7",
"{. c #C7C2AE",
"}. c #C7C3B2",
"|. c #C5C2B8",
" X c #CAC6B6",
".X c #CBC9BE",
"XX c #D9D3BB",
"oX c #E6D08A",
"OX c #E7DEBD",
"+X c #ECDEB3",
"@X c #FFF0B9",
"#X c #C5C5C5",
"$X c #CECCC7",
"%X c #D0CEC5",
"&X c #D0CFC8",
"*X c #D2D1CB",
"=X c #DBD6C5",
"-X c #DBD7C9",
";X c #D3D3D1",
":X c #DBDBDB",
">X c #E5E1D6",
",X c #E5E3DA",
"<X c #E8E5D9",
"1X c #EDEADC",
"2X c #FEF6DE",
"3X c #E6E6E6",
"4X c #E9E7E2",
"5X c #E9E8E4",
"6X c #EDECEA",
"7X c #F2F1EB",
"8X c #F1F1F1",
"9X c #F8F7F4",
"0X c #F9F8F8",
"qX c None",
/* pixels */
"qXqXqXqXqXqXqXqXqXqXqXqXqXqXqXqXqXqXqXqXqXqXqXqXqXqXqXqXqXqXqXqX",
"qXqXqXqXqXqXqXqXqX5 5 5 1 ,     qXqXqXqXqXqXqXqXqXqXqXqXqXqXqXqX",
"qXqXqXqXqXqXqXqX5 V /.&XQ.F 1 ,     qXqXqXqXqXqXqXqXqXqXqXqXqXqX",
"qXqXqXqXqXqXqXqX5 _.D.S.H.@X&X6 .   qXqXqXqXqXqXqXqXqXqXqXqXqXqX",
"qXqXqXqXqXqXqXqX5 S.=.w g &.C...+     qXqXqXqXqXqXqXqXqXqXqXqXqX",
"qXqXqXqXqXqXqXqX5 -.' + o t z.d.,     qXqXqXqXqXqXqXqXqXqXqXqXqX",
"qXqXqXqXqXqXqX5 C V.@.+   3 :.3.,     qXqXqXqXqXqXqXqXqXqXqXqXqX",
"qXqXqXqXqXqXqX5 '.b.F.6 , 1 s.,.,     qXqXqXqXqXqXqXqXqXqXqXqXqX",
"qXqXqXqXqXqXqX1 b ( n.OXE.E.F.^ +     qXqXqXqXqXqXqXqX5 5 1 ,   ",
"qXqXqXqXqXqXqX  l x K A.oXoXZ.i.,     qXqXqXqXqXqX5 V &X0X6X,   ",
"qXqXqXqXqXqXqX      8 ( c.v.k.N.1     qXqXqXqX5 V $X0X0X9XXX,   ",
"qXqXqXqXqXqXqXqX    O t 6.e.e.k.S O     5 5 V $X8X8X8X1XD : O   ",
"qXqXqXqXqXqXqXqXqXqX  3 J e.G.7X#.+ . 5 C |.3X3X5X4X_.4 %       ",
"qXqXqXqXqXqXqXqXqXqX    q ].0X0X+X, B }.:X:X:X:X=XS & o         ",
"qXqXqXqXqXqXqXqXqXqXqX  + M 8X8X7XU.Q.#X*X*X*XR.< %           qX",
"qXqXqXqXqXqXqXqXqXqXqXqX, 1  X6XW.G Q.L.^.{.Z @ .           qXqX",
"qXqXqXqXqXqXqXqXqXqX5 5 m P.W.:X6 . 3X/.X., @           qXqXqXqX",
"qXqXqXqXqXqXqX5 5 5 n +.R.W.J.K.W.^.:X:X1Xm +         qXqXqXqXqX",
"qXqXqXqXqX5 5 i o.y.v.q./ P.I.} | R.&X*X;X8X .,     qXqXqXqXqXqX",
"qXqX5 5 5 R 3.M.5.E L 7.4._ 0 + O + i ).#X#X5X~., O     qXqXqXqX",
"qX5 u ] m.r.%.H r : , t.0.P 7       $ , { `.(.;X-X, +     qXqXqX",
"5 u 2.w.$.k t o   , ~ h.P l             , u T.^.#X<XN ,     qXqX",
"5 >.9.U r .   . , T B.*.x         qX      + , Q !.Q.<XC ,     qX",
"p q.1.> .   + 1 [ m.p.k .       qXqXqXqX      , u O.W.;X! +     ",
"4 8.j.` p 5 y ;.u.a.d %       qXqXqXqXqXqX      O , A P._.,     ",
"1 x <.f.m.x.b.y.a.g ;         qXqXqXqXqXqXqXqX      + 0 v O     ",
"  - h c W W W W z :         qXqXqXqXqXqXqXqXqXqX      . .       ",
"      * e l l f X         qXqXqXqXqXqXqXqXqXqXqXqXqX            ",
"qX                      qXqXqXqXqXqXqXqXqXqXqXqXqXqXqXqX      qX",
"qXqXqX                qXqXqXqXqXqXqXqXqXqXqXqXqXqXqXqXqXqXqXqXqX",
"qXqXqXqXqXqXqXqXqXqXqXqXqXqXqXqXqXqXqXqXqXqXqXqXqXqXqXqXqXqXqXqX",
"qXqXqXqXqXqXqXqXqXqXqXqXqXqXqXqXqXqXqXqXqXqXqXqXqXqXqXqXqXqXqXqX"
};
