/* XPM */
static char *editpaste[] = {
/* columns rows colors chars-per-pixel */
"32 32 257 2",
"   c black",
".  c #0D0900",
"X  c #191000",
"o  c #221700",
"O  c #2A1B00",
"+  c #332200",
"@  c #3E2900",
"#  c #3A2804",
"$  c #4D3300",
"%  c #4B3E15",
"&  c #44391B",
"*  c #543800",
"=  c #5A3B00",
"-  c #4D4015",
";  c #524E25",
":  c #5A4F2C",
">  c #524E3D",
",  c #58562F",
"<  c #53503E",
"1  c #5E623B",
"2  c #634100",
"3  c #684500",
"4  c #6E4900",
"5  c #614F11",
"6  c #685416",
"7  c #734C00",
"8  c #784F00",
"9  c #755B00",
"0  c #7C5200",
"q  c #7C5A00",
"w  c #7B570F",
"e  c #69562F",
"r  c #786600",
"t  c #7F6A00",
"y  c #766300",
"u  c #60613F",
"i  c #7C6422",
"p  c #545143",
"a  c #54524B",
"s  c gray32",
"d  c #5D5D57",
"f  c #616641",
"g  c #67695D",
"h  c #6B734D",
"j  c #6C7553",
"k  c #616261",
"l  c #686A64",
"z  c #6B7162",
"x  c #727272",
"c  c #003DFF",
"v  c #0043FF",
"b  c #004BFF",
"n  c #0053FF",
"m  c #015AFF",
"M  c #0063FF",
"N  c #046DFF",
"B  c #0865FF",
"V  c #0378FF",
"C  c #1663FF",
"Z  c #1576FF",
"A  c #2678FF",
"S  c #6F7B84",
"D  c #77856D",
"F  c #7B8B75",
"G  c #0083FF",
"H  c #0197FF",
"J  c #0B92FF",
"K  c #1385FF",
"L  c #01A5FF",
"P  c #0DB5FF",
"I  c #3096FF",
"U  c #2DADFF",
"Y  c #2FBCFF",
"T  c #22C6FF",
"R  c #2AC5FF",
"E  c #30D0FF",
"W  c #38D5FF",
"Q  c #4493F1",
"!  c #5F83FF",
"~  c #5F8AFF",
"^  c #5290E4",
"/  c #5F92FF",
"(  c #4CAAFE",
")  c #40B8FF",
"_  c #779DCB",
"`  c #6693E2",
"'  c #6290FF",
"]  c #649DFF",
"[  c #71A6E5",
"{  c #79A4FF",
"}  c #7FB3FF",
"|  c #68B8F3",
" . c #42DCFF",
".. c #47E0FF",
"X. c #58E9FF",
"o. c #64C0EB",
"O. c #6ADFEF",
"+. c #825600",
"@. c #845A00",
"#. c #8B5C00",
"$. c #905F00",
"%. c #8C6103",
"&. c #876807",
"*. c #8A6111",
"=. c #886E1B",
"-. c #887600",
";. c #8C7A00",
":. c #936200",
">. c #986800",
",. c #926C22",
"<. c #987A3F",
"1. c #A07200",
"2. c #A27511",
"3. c #A97D15",
"4. c #A77B14",
"5. c #998712",
"6. c #A68000",
"7. c #A78F00",
"8. c #AD8016",
"9. c #AC9600",
"0. c #BB8F00",
"q. c #A99B2A",
"w. c #B9A000",
"e. c #B3A63C",
"r. c #958D43",
"t. c #988F44",
"y. c #9A9346",
"u. c #9F9948",
"i. c #8B897C",
"p. c #958F6F",
"a. c #98937B",
"s. c #A68443",
"d. c #B08C41",
"f. c #AF9462",
"g. c #B39864",
"h. c #B2A850",
"j. c #BDB355",
"k. c #C3972F",
"l. c #C5A400",
"z. c #CCAC00",
"x. c #D7BB00",
"c. c #CCA030",
"v. c #CBB43E",
"b. c #E4AD0C",
"n. c #ECB600",
"m. c #EDB900",
"M. c #F2BB00",
"N. c #C1B84C",
"B. c #C1B757",
"V. c #C5BB58",
"C. c #C9BE5A",
"Z. c #C2A978",
"A. c #DFC000",
"S. c #FDCB00",
"D. c #F6C300",
"F. c #FFD100",
"G. c #FEDB00",
"H. c #FFDF0E",
"J. c #F5D500",
"K. c #FBCD39",
"L. c #FFE832",
"P. c #FFE432",
"I. c #CEC25C",
"U. c #D7C648",
"Y. c #DDC74B",
"T. c #D0C55E",
"R. c #D3C85F",
"E. c #D5C960",
"W. c #DDD264",
"Q. c #E0CA4C",
"!. c #E7D14E",
"~. c #EFDA51",
"^. c #F4D050",
"/. c #F9D452",
"(. c #FEDD53",
"). c #E2D765",
"_. c #E9DD69",
"`. c #E6DD68",
"'. c #FDDB6E",
"]. c #FFEE4F",
"[. c #FEE354",
"{. c #FEEA55",
"}. c #F7E153",
"|. c #FFF056",
" X c #ECE16A",
".X c #F1E56D",
"XX c #F7EA6F",
"oX c #F7EB70",
"OX c #F9EC70",
"+X c #FEF372",
"@X c #979486",
"#X c gray60",
"$X c #969596",
"%X c #8AA193",
"&X c #82A89B",
"*X c #8CAEA3",
"=X c #86A7A9",
"-X c #8BA2B1",
";X c #ACA580",
":X c #A5A291",
">X c #B3AF98",
",X c #B8B7AF",
"<X c #B3B2AB",
"1X c #B1B1B1",
"2X c #A6B8FF",
"3X c #88DEE0",
"4X c #8BF0FE",
"5X c #A4CFC6",
"6X c #BFD5FF",
"7X c #BFDCFF",
"8X c #C2AD82",
"9X c #CBB489",
"0X c #D2BF9B",
"qX c #D1C19F",
"wX c #C8C4AA",
"eX c #CFCBB7",
"rX c #D8C7A6",
"tX c #D2C2A3",
"yX c #D5CCB3",
"uX c #DAD1A1",
"iX c #DDD5BB",
"pX c #D7D1B3",
"aX c #ECE5BB",
"sX c #F5EBB5",
"dX c #F5ECBC",
"fX c #F8EEB8",
"gX c #FCF2BC",
"hX c #CBCBCB",
"jX c #D8D6C7",
"kX c #DDDDDD",
"lX c #E4DAC2",
"zX c #ECE6C7",
"xX c #EBE6D9",
"cX c #E9E3D0",
"vX c #F5EDC4",
"bX c #F6EFC9",
"nX c #F0EBD5",
"mX c #F3EFDB",
"MX c #FCF3C5",
"NX c #FCF4CA",
"BX c #F7F0CA",
"VX c #F6F0D2",
"CX c #F9F3D3",
"ZX c #F9F4DC",
"AX c #FFF8D4",
"SX c #FFF9DB",
"DX c #E7E7E4",
"FX c #EBEBE9",
"GX c #F1EDE1",
"HX c #F9F6E5",
"JX c #FDF9E4",
"KX c #FEFBEB",
"LX c #F6F2E6",
"PX c #FEFCF3",
"IX c #FEFDFD",
"UX c #F4F4F3",
"YX c None",
/* pixels */
"YXYXYXYXYXYX                          YXYXYXYXYXYXYXYXYXYXYXYXYX",
"YXYXYXYX:.:.+ IXIXIXIXIXIXIXIXFX# +.7     YXYXYXYXYXYXYXYXYXYXYX",
"YXYXYX>.k.c.6 FXkXkXkXDXkXkXkXx i b.>.+     YXYXYXYXYXYXYXYXYXYX",
"YXYXYX:.'.K.=.hX1X1X1X1X1X1X1Xd &.0.%.* 7 #.#.:.$.#.2     YXYXYX",
"YXYXYX:./.M.%.$Xk k d s s s e w >.2.d.s.Z.9XrXlXxX0X7     YXYXYX",
"YXYXYX:.^.M.1.: % % - % 5 6 &.GXIXIXPXPXPXPXPXLXIXIXg.3     YXYX",
"YXYX#X:.^.m.v.y.r.r.r.r.h.h.2.IXPXPXKXKXPXKXHXxXUXIXIXf.4     YX",
"YXYX#X:.^.m.Y.I.B.j.j.j.V.I.4.PXKXJXKXJXKXKXmXjXFXIXIXUX+.    YX",
"YXYX#X:.^.m.Y.E.I.j.j.j.I.R.8.PXKXSXJXJXJXSXnXeXDXIXIXUX<.    YX",
"YXYXYX:./.M.!.W.R.I.T.R.E.W.8.UXJXJXSXSXSXSXnXeX:X@Xi.<X7       ",
"YXYXYX:./.D.~._.`.W.W.W.W. X8.PXJXSXAXSXSXSXVXjX>X@X@X,X4       ",
"YXYXYX:.(.S.}..X X X X X X X8.PXSXAXAXAXAXAXNXzXpXwXwXjX7       ",
"YXYXYX:.(.S.[.OXOXOXoXoXt.; O s a p p p p a.AXMXvXaXzXGX+.      ",
"YXYXYX:.(.S.[.+X+X+XOX+X; 7X2X] / / ~ ! 2Xp MXNXNXNXSXKX+.    YX",
"YXYXYX:.(.F.|.+X+X+X+X+Xy., _ A m b v c ! p MXMXgXMXAXKX+.    YX",
"YXYXYX:.(.F.|.+X+X+X+X+X+Xj.& ^ B n b v ' < gXMXgXgXNXKX+.    YX",
"YXYXYX:.(.F.U.W.+X+X+X+X).y.g Q N m n b ~ < gXgXgXgXAXJXq     YX",
"YXYXYX:.[.l.j j y.I.j.r.1 =X( K N M m b ~ < gXgXgXgXNXKX+.    YX",
"YXYXYX:.[.t 5X4X&XD F =X| U J G V Z A C / < fXgXgXgXMXHX+.    YX",
"YXYXYX:.[.l.h 3XX...W T P L H K I [ S ` { < fXfXfXfXMXKX+.    YX",
"YXYXYX:.[.G.e.1 *XO...E R Y Y | -Xd Z.k 6X> fXfXfXfXBXJX+.    YX",
"YXYXYX:.[.G.{.`.u.1 F &X*X%Xz l a.uXfXp.> p.sXsXsXfXBXJX+.    YX",
"YXYXYX:.{.G.|.+X+X XN.q.5.7.q cXvXsXsXsXsXsXsXsXsXsXBXKX+.    YX",
"YXYXYX:.|.G.].|.L.H.G.G.G.A.1.JXvXsXsXsXsXsXsXsXfXdXCXPX+.    YX",
"YXYXYX:.{.G.G.G.G.G.x.w.;.t :.HXdXsXsXsXsXsXdXvXBXZXLXtX=     YX",
"YXYXYX:.{.G.J.x.9.;.r 9 q 0 #.KXvXsXaXsXvXBXCXHXiXg.*.= O     YX",
"YXYXYX:.L.9.-.y 9 q 0 = +   #.HXbXdXbXVXZXcX8X,.3 $ .         YX",
"YXYXYX%.z.9 q 7 * o         $.PXZXmXmX0Xs.0 $ X               YX",
"YXYXYX8 0 = o               :.IXpXg.*.= O               YXYXYXYX",
"YXYXYX                  YXYX@.#.2 @ .               YXYXYXYXYXYX",
"YXYXYX            YXYXYXYXYX                  YXYXYXYXYXYXYXYXYX",
"YXYXYXYXYXYXYXYXYXYXYXYXYXYX            YXYXYXYXYXYXYXYXYXYXYXYX"
};
