/* XPM */
static char *filenew[] = {
/* columns rows colors chars-per-pixel */
"32 32 178 2",
"   c black",
".  c #191000",
"X  c #221700",
"o  c #452E00",
"O  c #4A3100",
"+  c #4E3400",
"@  c #553800",
"#  c #604000",
"$  c #6A4600",
"%  c #6D4800",
"&  c #704A00",
"*  c #724C00",
"=  c #744C00",
"-  c #764E00",
";  c #785000",
":  c #805500",
">  c #815500",
",  c #835700",
"<  c #865900",
"1  c #875A00",
"2  c #8A5B00",
"3  c #8A5C00",
"4  c #8B5C00",
"5  c #8C5D00",
"6  c #8D5D00",
"7  c #8F5E00",
"8  c #805911",
"9  c #905F00",
"0  c #906000",
"q  c #926000",
"w  c #946200",
"e  c #956300",
"r  c #966400",
"t  c #976400",
"y  c #956913",
"u  c #926C22",
"i  c #9B7732",
"p  c #B18D48",
"a  c #B28E49",
"s  c #B4904A",
"d  c #BAA373",
"f  c #A1A195",
"g  c #ABAB9F",
"h  c #ADADAB",
"j  c #AFAFAB",
"k  c #B3B3A6",
"l  c #BCBCB8",
"z  c #BFBFBC",
"x  c #CBB489",
"c  c #CBB58A",
"v  c #CDB78B",
"b  c #CAB891",
"n  c #C9BB9E",
"m  c #CEBEA2",
"M  c #C6C6BC",
"N  c #D9C8A8",
"B  c #E8E1BA",
"V  c #E8E1BB",
"C  c #FEFFA1",
"Z  c #FFFFA0",
"A  c #FEFFA3",
"S  c #FEFFA4",
"D  c #FEFFA6",
"F  c #FEFFA8",
"G  c #FEFFA9",
"H  c #FFFFA8",
"J  c #FEFFAA",
"K  c #FEFFAB",
"L  c #FFFFAB",
"P  c #FEFFAC",
"I  c #FFFFAC",
"U  c #FEFFAE",
"Y  c #FEFFAF",
"T  c #FEFFB0",
"R  c #FEFFB1",
"E  c #FFFFB0",
"W  c #FEFFB4",
"Q  c #FEFFB5",
"!  c #FFFFB4",
"~  c #FEFFB8",
"^  c #FEFFB9",
"/  c #FFFFB8",
"(  c #FFFFB9",
")  c #FEFFBB",
"_  c #FFFFBA",
"`  c #FEFFBD",
"'  c #FFFFBD",
"]  c #FEFFBE",
"[  c #FFFFBE",
"{  c #C8C8C1",
"}  c #CACAC4",
"|  c #CBCBC6",
" . c #DBD2C1",
".. c #DEDFCF",
"X. c #D4D4D1",
"o. c #E1D5C1",
"O. c #E3D9C3",
"+. c #E5DCCC",
"@. c #E8E8D3",
"#. c #ECECD7",
"$. c #F0EBDA",
"%. c #FEFFC2",
"&. c #FEFFC3",
"*. c #FFFFC2",
"=. c #FEFFC7",
"-. c #FFFFC7",
";. c #FEFFCB",
":. c #FEFFCC",
">. c #FFFFCC",
",. c #FEFFCE",
"<. c #FEFFD0",
"1. c #FEFFD1",
"2. c #FFFFD0",
"3. c #FFFFD1",
"4. c #FFFFD3",
"5. c #FEFFD5",
"6. c #FFFFD5",
"7. c #FEFFD6",
"8. c #FEFFD7",
"9. c #FFFFD6",
"0. c #FFFFD8",
"q. c #FEFFDA",
"w. c #FFFFDA",
"e. c #FFFFDB",
"r. c #FFFFDC",
"t. c #FEFFDE",
"y. c #FEFFDF",
"u. c #FFFFDE",
"i. c #FFFFDF",
"p. c #E9E9E7",
"a. c #F3F3E9",
"s. c #F3F3EB",
"d. c #F5F5E8",
"f. c #F8F8E3",
"g. c #FEFFE0",
"h. c LightYellow",
"j. c #FFFFE1",
"k. c #FEFFE3",
"l. c #FFFFE3",
"z. c #FDFEE7",
"x. c #FEFFE4",
"c. c #FEFFE5",
"v. c #FFFFE4",
"b. c #FBFBE9",
"n. c #FEFFE8",
"m. c #FFFFE8",
"M. c #FFFFE9",
"N. c #FFFFEA",
"B. c #FEFFEC",
"V. c #FEFFED",
"C. c #FFFFEC",
"Z. c #FFFFED",
"A. c #FEFFEF",
"S. c #F4F4F0",
"D. c #F4F4F3",
"F. c #F5F5F4",
"G. c #F8F8F6",
"H. c ivory",
"J. c #FFFFF1",
"K. c #FEFFF3",
"L. c #FFFFF3",
"P. c #FEFFF4",
"I. c #FFFFF4",
"U. c #FEFFF7",
"Y. c #FFFFF6",
"T. c #FFFFF7",
"R. c #FBFBFB",
"E. c #FFFFF8",
"W. c #FFFFF9",
"Q. c #FFFFFA",
"!. c #FFFFFB",
"~. c gray99",
"^. c #FEFFFD",
"/. c #FFFFFC",
"(. c #FFFFFD",
"). c #FFFFFE",
"_. c gray100",
"`. c None",
/* pixels */
"`.`.`.`.`.`.`.`.`.`.`.`.`.`.`.`.`.`.`.`.`.`.`.`.`.`.`.`.`.`.`.`.",
"`.`.`.`.`.`.`.`.`.`.`.`.`.`.`.`.`.`.`.`.`.`.`.`.`.`.`.`.`.`.`.`.",
"`.`.`.`.`.`.`.`.`.w 2 1 w 4 4 4 6 w 9 6 -     `.`.`.`.`.`.`.`.`.",
"`.`.`.`.`.`.`.`.r s p p c c c c N O.+.o.y #     `.`.`.`.`.`.`.`.",
"`.`.`.`.`.`.`.`.r ).).).).).).).).F.p.). .& o     `.`.`.`.`.`.`.",
"`.`.`.`.`.`.`.`.w ).E.).E.).E.E.E.S.X.).R.n $ +     `.`.`.`.`.`.",
"`.`.`.`.`.`.`.`.w E.Y.Y.E.Y.E.E.E.a.| ).).D.m %     `.`.`.`.`.`.",
"`.`.`.`.`.`.`.`.w E.Y.Y.J.Y.J.Y.Y.a.| ).).).D.>     `.`.`.`.`.`.",
"`.`.`.`.`.`.`.`.w Y.J.J.J.J.J.J.J.a.M l h h { ;     `.`.`.`.`.`.",
"`.`.`.`.`.`.`.`.w Y.B.B.B.N.N.B.B.b...k f h } ;     `.`.`.`.`.`.",
"`.`.`.`.`.`.`.`.w J.N.N.N.N.N.N.N.l.f.#.@.#.a.>     `.`.`.`.`.`.",
"`.`.`.`.`.`.`.`.w J.l.l.l.l.l.l.l.l.l.l.l.l.J.>     `.`.`.`.`.`.",
"`.`.`.`.`.`.`.`.w J.r.l.l.r.l.r.l.r.l.r.l.r.J.1     `.`.`.`.`.`.",
"`.`.`.`.`.`.`.`.w B.r.r.q.q.q.q.q.q.r.q.q.r.B.>     `.`.`.`.`.`.",
"`.`.`.`.`.`.`.`.w N.5.5.5.5.q.5.5.5.5.5.5.5.B.,     `.`.`.`.`.`.",
"`.`.`.`.`.`.`.`.w N.<.<.<.<.<.<.<.5.<.<.<.<.N.,     `.`.`.`.`.`.",
"`.`.`.`.`.`.`.`.w l.,.;.;.;.,.;.,.;.,.;.;.;.l.,     `.`.`.`.`.`.",
"`.`.`.`.`.`.`.`.w l.-.-.-.-.-.-.;.-.-.-.-.;.l.>     `.`.`.`.`.`.",
"`.`.`.`.`.`.`.`.w l.-.%.%.%.%.%.%.%.%.%.%.%.l.,     `.`.`.`.`.`.",
"`.`.`.`.`.`.`.`.w r.' ' ' ' ' ) ' ' ' ' ' ' r.,     `.`.`.`.`.`.",
"`.`.`.`.`.`.`.`.w r.) ) W ) ) ) ) ) ) W ) ) q.,     `.`.`.`.`.`.",
"`.`.`.`.`.`.`.`.w q.W W W W W W W W W W W W q.,     `.`.`.`.`.`.",
"`.`.`.`.`.`.`.`.w 5.Y Y W Y Y Y Y Y Y Y Y Y 5.,     `.`.`.`.`.`.",
"`.`.`.`.`.`.`.`.w 5.J J J Y J Y Y J Y J J Y q.,     `.`.`.`.`.`.",
"`.`.`.`.`.`.`.`.w 5.J J D J J D J D J W ) ,.$.-     `.`.`.`.`.`.",
"`.`.`.`.`.`.`.`.w <.Z D D Z D J Y ' ,.B b i - O     `.`.`.`.`.`.",
"`.`.`.`.`.`.`.`.w <.Z Z Z Y ) <.B d u & @ X         `.`.`.`.`.`.",
"`.`.`.`.`.`.`.`.w ,.J ) ,.B d y & o .               `.`.`.`.`.`.",
"`.`.`.`.`.`.`.`.w Y.V d u & o .                 `.`.`.`.`.`.`.`.",
"`.`.`.`.`.`.`.`.1 4 & o .                 `.`.`.`.`.`.`.`.`.`.`.",
"`.`.`.`.`.`.`.`.                    `.`.`.`.`.`.`.`.`.`.`.`.`.`.",
"`.`.`.`.`.`.`.`.              `.`.`.`.`.`.`.`.`.`.`.`.`.`.`.`.`."
};
