/* XPM */
static char *fileopen[] = {
/* columns rows colors chars-per-pixel */
"32 32 257 2",
"   c black",
".  c #0B0900",
"X  c #130E00",
"o  c #161100",
"O  c #231A00",
"+  c #352600",
"@  c #3B311C",
"#  c #433100",
"$  c #4F3B00",
"%  c #4A3E16",
"&  c #4A3D22",
"*  c #4D421A",
"=  c #54420D",
"-  c #4E4529",
";  c #484338",
":  c #484233",
">  c #5B4B24",
",  c #624500",
"<  c #674D00",
"1  c #6D4D00",
"2  c #6E4F17",
"3  c #6D5200",
"4  c #775500",
"5  c #745B0F",
"6  c #795200",
"7  c #7A5A00",
"8  c #715C18",
"9  c #764B0A",
"0  c #6C5423",
"q  c #6D592E",
"w  c #785E27",
"e  c #735626",
"r  c #665736",
"t  c #7A631D",
"y  c #7A672E",
"u  c #776535",
"i  c #5C5956",
"p  c #78704F",
"a  c #75726E",
"s  c #8D4F00",
"d  c #815700",
"f  c #835A00",
"g  c #8A5C00",
"h  c #866400",
"j  c #966100",
"k  c #956F00",
"l  c #9C6100",
"z  c #9D7500",
"x  c #856B2A",
"c  c #8C752A",
"v  c #8C723B",
"b  c #977939",
"n  c #A45D00",
"m  c #A26100",
"M  c #AA680D",
"N  c #AB6700",
"B  c #A07700",
"V  c #A57B00",
"C  c #AB7A00",
"Z  c #AA7300",
"A  c #AF721A",
"S  c #B87E00",
"D  c #B57B00",
"F  c #B0731A",
"G  c #B47C26",
"H  c #B77E28",
"J  c #897F59",
"K  c #977C40",
"L  c #927F58",
"P  c #807A6C",
"I  c #9C821D",
"U  c #9F8A35",
"Y  c #AC8000",
"T  c #B28500",
"R  c #B68800",
"E  c #BB8B00",
"W  c #A78337",
"Q  c #A28B31",
"!  c #AF9535",
"~  c #B58E3A",
"^  c #B88633",
"/  c #B49936",
"(  c #BCA039",
")  c #998445",
"_  c #978657",
"`  c #8B8264",
"'  c #8E8572",
"]  c #978864",
"[  c #978C75",
"{  c #9F9072",
"}  c #A38845",
"|  c #A48952",
" . c #AA965C",
".. c #A89156",
"X. c #B5934D",
"o. c #B39D45",
"O. c #B49755",
"+. c #AB984A",
"@. c #AD9A65",
"#. c #A79778",
"$. c #A59874",
"%. c #A29B7A",
"&. c #A79775",
"*. c #BDA959",
"=. c #B3A46C",
"-. c #B1A07F",
";. c #B5A97A",
":. c #BEB37B",
">. c #C49200",
",. c #C89500",
"<. c #CC9800",
"1. c #C69812",
"2. c #D2A31C",
"3. c #C2A63E",
"4. c #D7AE37",
"5. c #C29840",
"6. c #C29B4E",
"7. c #C2A641",
"8. c #C6AA43",
"9. c #C8AC45",
"0. c #CBAF49",
"q. c #CAA746",
"w. c #C4A158",
"e. c #CAA65D",
"r. c #CEA857",
"t. c #CFA95A",
"y. c #C5AC50",
"u. c #CDB14B",
"i. c #CBB358",
"p. c #CAB152",
"a. c #D2AB59",
"s. c #D1B54D",
"d. c #D4B951",
"f. c #D6BC5B",
"g. c #DDB45E",
"h. c #D9BD56",
"j. c #D2B753",
"k. c #DAAB48",
"l. c #CEAE69",
"z. c #CCAD67",
"x. c #CCB662",
"c. c #CAB26B",
"v. c #C8B66B",
"b. c #CEB775",
"n. c #CEBE7F",
"m. c #D3AD66",
"M. c #D5BE64",
"N. c #D4BF6D",
"B. c #E4B34B",
"V. c #E0B75F",
"C. c #E1B85F",
"Z. c #E4BA61",
"A. c #E9BE63",
"S. c #DDC159",
"D. c #DAC269",
"F. c #D4C176",
"G. c #D8C67F",
"H. c #E1C55D",
"J. c #EFC05D",
"K. c #F1C15E",
"L. c #E0C264",
"P. c #E5C961",
"I. c #EDC164",
"U. c #E9CD65",
"Y. c #EFD36B",
"T. c #F2C564",
"R. c #F6C868",
"E. c #F8C760",
"W. c #FBCC6A",
"Q. c #FDCB63",
"!. c #F1D56D",
"~. c #FFD06C",
"^. c #F5D972",
"/. c #FED175",
"(. c #FADE77",
"). c #E4C87A",
"_. c #FEE27C",
"`. c #8F9192",
"'. c #9A9A96",
"]. c #A79F83",
"[. c #ADA583",
"{. c #A7A399",
"}. c #BBAC86",
"|. c #BDB088",
" X c #BBB298",
".X c #A7A8A6",
"XX c #ADAEB0",
"oX c #B5B6B4",
"OX c #BABCBC",
"+X c #C6B38E",
"@X c #D3BE80",
"#X c #D0BC95",
"$X c #C6BFA6",
"%X c #C5C29D",
"&X c #D2C283",
"*X c #DAC789",
"=X c #DBCA8B",
"-X c #D5C489",
";X c #DBCD94",
":X c #D6C699",
">X c #CFC8B1",
",X c #C8C6B7",
"<X c #D1C9A6",
"1X c #DBD3BA",
"2X c #E1C981",
"3X c #E0CD91",
"4X c #ECD686",
"5X c #EBD69E",
"6X c #FED682",
"7X c #FED88B",
"8X c #FEDC95",
"9X c #E3CEA3",
"0X c #EED9A9",
"qX c #E7DCB9",
"wX c #F4DDAF",
"eX c #FFE68A",
"rX c #FFE893",
"tX c #FFEA9F",
"yX c #FFE2A5",
"uX c #FFE3AC",
"iX c #FFECA7",
"pX c #FFEDAE",
"aX c #F1E0B6",
"sX c #FDE5B4",
"dX c #FFEEB4",
"fX c #F8E5BB",
"gX c #FFF0BC",
"hX c #C5C7C8",
"jX c #C7C8CA",
"kX c #CCCECF",
"lX c #CCCAC0",
"zX c #CDCED0",
"xX c #D1D1CF",
"cX c #D1D3D4",
"vX c #D6D8DA",
"bX c #DADCDE",
"nX c #DCDEE0",
"mX c #DEE0E2",
"MX c #E7DEC2",
"NX c #EBE1C5",
"BX c #F4E9C3",
"VX c #F7EACE",
"CX c #FEEAC3",
"ZX c #FAEBCA",
"AX c #FFF1C1",
"SX c #FFF3CC",
"DX c #FFF6DA",
"FX c #E1E3E5",
"GX c #E4E6E8",
"HX c #E7E9EA",
"JX c #E8E6E0",
"KX c #E9EAEC",
"LX c #ECEEF0",
"PX c #EEF0F2",
"IX c #F8F4E8",
"UX c #F1F3F5",
"YX c None",
/* pixels */
"YXYXYXYXYXYXYXYXYXYXYXYXYXYXYXYXYXYXYX  V E <.,.T   YXYXYXYXYXYX",
"YXYXYXYXYXYXYXYXYXYXYXYXYXYXYXYXYXYX< E 2.aXCXVXE 3 E <.E   YXYX",
"YXYXYXYXYXYXYXYXYXYXYXYXYXYXYXYX  R ,.5XCX8XQ.wX<.1.$.OX<.  YXYX",
"YXYXYXYXYXYXYXYXYXYXYXYXYXYX  R >.L.ZXyXT.K.E.wX ..XKXKXR   YXYX",
"YXYXYXYXYXYXYXYXYXYXYXYX  V E 4.ZXsXW.K.I.Z.O.{.KXUXUXMXk   YXYX",
"YXYXYXYXYXYX  R E 7 YX< E 2.aXsX6XC.T.Z.w.[ xXUXUXUXUX2X3   YXYX",
"YXYXYXYX  R >.).5X,.T ,.5XCX8XK.T.A.a.] OXUXUXUXUXUXUX2.O   YXYX",
"YXYX  Y E Z.ZXsX7XsX0XCXyXR.K.I.V._ .XUXUXUXUXUXLXKXJXV D N S 7 ",
"  z E 4.fXsX/.K.~./.6X~.I.I.C...'.KXUXPXPXPXLXKXGXbXl.N m.SXm.D ",
"  E 0XgX7XE.W.W.~.~.R.I.Z.w.' bXUXUXUXPXPXLXmXbX$X) ~ aXSXpXBXn ",
"  <.CXT.Q.~.W.W.R.I.A.t._ hXUXUXUXUXPXLXGXnX,X .t  XAXSXeX4Xl.Z ",
"  <.sXB.W.W.W.T.A.g._ oXUXUXUXUXUXLXLXmXcX=.5 $.BXgXeX!.D.3Xm + ",
"  <.sXB.R.R.A.V.| {.KXUXUXUXUXLXKXGXvX|.c u qXdXgX^.U.f.3XH f   ",
"  <.sXB.T.Z.m.[ nXUXUXUXUXPXKXHXbX,X) e <XdXiX_.S.u.P.F.t.h     ",
"  <.sXk.Z.r.K jXUXUXUXPXLXKXmXcX@.5 %.DXiX_.Y.S.d.h.D.*Xl X     ",
"  <.wXq.r.X.r UXUXPXPXKXmXvX|.y _ NXdXrX!.S.d.h.d.f.=XF 4     YX",
"  ,.0X5.X.) a PXPXKXGXnX>X) y >XAXAX_.S.h.h.u.s.d.F.6.g       YX",
"  >.9X~ } u '.LXKXmXxX .5 [.IXAX_.!.S.h.h.d.8.s.D.n.j       YXYX",
"  >.:XW v & kXmXvX;.t ] BXAXrX!.U.u.S.9.u.3.7.i.;XM 1     YXYXYX",
"  E #Xb u : nXcX_ u 1XSXgX^.U.H.S.d.8.s.d.u.b.-XG g     YXYXYXYX",
"  R +Xc r a zX[.= -XdX_.U.d.P.h.d.u.3.8.N.=Xw.l 1       YXYXYXYX",
"  T }.x > `.oX> %.*.S.S.h.S.7.d.h.0.p.n.c.M d .       YXYXYXYXYX",
"  C ].w @ XXu p *.( h.S.s.u.u.u.p.N.*X^ g +         YXYXYXYXYXYX",
"  Z &.e ; ` * :.o.S.S.S.u.( 9.x.&XX.j ,             YXYXYXYXYXYX",
"  B { 0 i % [.o.u.S.d.h.9.M.&Xz.M 6             YXYXYXYXYXYXYXYX",
"  z { 0 - J *./ S.9.d.i.G.&XF g O           YXYXYXYXYXYXYXYXYXYX",
"  z $.2 w =.! s.d.p.N.;X^ l ,             YXYXYXYXYXYXYXYXYXYXYX",
"  B &.9 ;.Q / j.x.@Xl.m 6             YXYXYXYXYXYXYXYXYXYXYXYXYX",
"  h W @.+.I y.&Xb.F 7 O           YXYXYXYXYXYXYXYXYXYXYXYXYXYXYX",
"  $ s %XU F.=X^ j #           YXYXYXYXYXYXYXYXYXYXYXYXYXYXYXYXYX",
"    g O.<Xe.l 1             YXYXYXYXYXYXYXYXYXYXYXYXYXYXYXYXYXYX",
"    o f n d .           YXYXYXYXYXYXYXYXYXYXYXYXYXYXYXYXYXYXYXYX"
};
