/* XPM */
static char *filesave[] = {
/* columns rows colors chars-per-pixel */
"32 32 257 2",
"   c #000000",
".  c #06060A",
"X  c #09090D",
"o  c #0B0B16",
"O  c #101022",
"+  c #1E1E28",
"@  c #181829",
"#  c #151F3A",
"$  c #1A263F",
"%  c #1D2A3F",
"&  c #272730",
"*  c #2E2E3F",
"=  c #212140",
"-  c #212E41",
";  c #2F2F41",
":  c #292A4A",
">  c #23224B",
",  c #262353",
"<  c #292655",
"1  c #2B2C54",
"2  c #2C2C5B",
"3  c #293746",
"4  c #2D304F",
"5  c #243243",
"6  c #2E315D",
"7  c #363647",
"8  c #303E4A",
"9  c #30325E",
"0  c #3C3C53",
"q  c #2E2E60",
"w  c #2F3160",
"e  c #302E63",
"r  c #313164",
"t  c #363861",
"y  c #353868",
"u  c #384650",
"i  c #284F6B",
"p  c #2D547B",
"a  c #3B486A",
"s  c #36597D",
"d  c #3D5D7C",
"f  c #4C4C4C",
"g  c #40405A",
"h  c #414E56",
"j  c #4B585E",
"k  c #49545E",
"l  c #555555",
"z  c #4D4D6B",
"x  c #434675",
"c  c #4B5660",
"v  c #4F5962",
"b  c #41517E",
"n  c #4B507D",
"m  c #515C67",
"M  c #505D6E",
"N  c #5C5D7D",
"B  c #546066",
"V  c #54626D",
"C  c #5B646D",
"Z  c #55677A",
"A  c #556B78",
"S  c #5D6772",
"D  c #6B6B6B",
"F  c #646464",
"G  c #616C73",
"H  c #63707D",
"J  c #6B7679",
"K  c gray45",
"L  c #00418E",
"P  c #004494",
"I  c #004894",
"U  c #044F98",
"Y  c #03509B",
"T  c #0A5198",
"R  c #13579C",
"E  c #185DA1",
"W  c #285888",
"Q  c #2B6094",
"!  c #396D9A",
"~  c #336A96",
"^  c #3D719B",
"/  c #226EB8",
"(  c #326EA8",
")  c #326BA3",
"_  c #3673AE",
"`  c #3A76B4",
"'  c #0B6FD1",
"]  c #0F75D8",
"[  c #1479DA",
"{  c #1B7CDC",
"}  c #466481",
"|  c #42749C",
" . c #4A799E",
".. c #506A84",
"X. c #5F678D",
"o. c #576391",
"O. c #5A6592",
"+. c #5F6893",
"@. c #5B738B",
"#. c #507DA1",
"$. c #626283",
"%. c #636A94",
"&. c #656F98",
"*. c #657A8F",
"=. c #6B7299",
"-. c #717191",
";. c #797998",
":. c #687BA6",
">. c #2281DC",
",. c #3F81C0",
"<. c #3988D7",
"1. c #2785E1",
"2. c #2E8AE3",
"3. c #368FE5",
"4. c #3690E6",
"5. c #3D93E7",
"6. c #3D94E9",
"7. c #57839E",
"8. c #4787BC",
"9. c #5480A1",
"0. c #5B84A3",
"q. c #6E8496",
"w. c #6E8B9A",
"e. c #7D848E",
"r. c #728597",
"t. c #738598",
"y. c #768899",
"u. c #7B8B9B",
"i. c #6489A5",
"p. c #698EA7",
"a. c #6D8FA9",
"s. c #6E81AB",
"d. c #7683A6",
"f. c #768CB7",
"g. c #7395AD",
"h. c #7C96B0",
"j. c #4086CA",
"k. c #4986C3",
"l. c #4284C3",
"z. c #498ED2",
"x. c #4D95DB",
"c. c #548DC5",
"v. c #5D92C8",
"b. c #5593C9",
"n. c #5097DE",
"m. c #5198DE",
"M. c #4296E7",
"N. c #4895E2",
"B. c #4B99E5",
"V. c #4A9CEB",
"C. c #4599EB",
"Z. c #529DE6",
"A. c #589EE2",
"S. c #54A1EB",
"D. c #5AA1E6",
"F. c #5AA5EB",
"G. c #5EA8EF",
"H. c #53A3F1",
"J. c #5EAAF2",
"K. c #6699CB",
"L. c #799BC8",
"P. c #7EA6C9",
"I. c #60A2E5",
"U. c #65A7E8",
"Y. c #6BABE9",
"T. c #68ADF2",
"R. c #67B0F5",
"E. c #6DB3F6",
"W. c #70ADEA",
"Q. c #75B0E9",
"!. c #7CB5EB",
"~. c #73B9F8",
"^. c #7BBDFB",
"/. c #7CBAF6",
"(. c gray55",
"). c #828899",
"_. c #84949E",
"`. c #918E8A",
"'. c #949494",
"]. c #8F8FA9",
"[. c #8997A5",
"{. c #8A9AA9",
"}. c #9A9BAF",
"|. c #9399A9",
" X c #9FAAB5",
".X c #A29E9B",
"XX c #A7A7A7",
"oX c #ABABAB",
"OX c #A3A3B4",
"+X c #A8A8B7",
"@X c #A3ABB3",
"#X c #B4B5B5",
"$X c #B0B0BC",
"%X c #B7B9BC",
"&X c #BBB7B3",
"*X c #BBBBBB",
"=X c #82B1DB",
"-X c #81B7EC",
";X c #88BBED",
":X c #86BAED",
">X c #AEBBC8",
",X c #A6BDCD",
"<X c #BBBCC3",
"1X c #81C1F6",
"2X c #83C2FA",
"3X c #89C4FA",
"4X c #8CC8FC",
"5X c #95C2EF",
"6X c #93CBFD",
"7X c #9BCFFF",
"8X c #97D0FC",
"9X c #9CD3FE",
"0X c #BEC0C1",
"qX c #A3C7E7",
"wX c #A2CAF1",
"eX c #A1D4FF",
"rX c #A3D8FF",
"tX c #AADBFF",
"yX c #B0D1F2",
"uX c #BDD9F4",
"iX c #AAE0FF",
"pX c #B3E1FF",
"aX c #B9E6FF",
"sX c #BEE9FF",
"dX c #C4C4C4",
"fX c #C6C5CD",
"gX c #C6C8CB",
"hX c #CAC7C4",
"jX c #CAC8C6",
"kX c #CBCCCB",
"lX c #D1D0CE",
"zX c #D3D3D3",
"xX c #D4D7D9",
"cX c #D8D8D7",
"vX c #DBDBDB",
"bX c #C4ECFF",
"nX c #C9E0F6",
"mX c #C4F5FF",
"MX c #CCF2FF",
"NX c #D5E6F7",
"BX c #DDEBF9",
"VX c #DCFDFF",
"CX c #D3F1F5",
"ZX c #E1E0DE",
"AX c #E4E3E3",
"SX c #E4E7EA",
"DX c #E7E8E9",
"FX c #E8E6E4",
"GX c #EDE9E5",
"HX c #EBEBEB",
"JX c #E7EEF5",
"KX c #EAF2FA",
"LX c #F1EEEA",
"PX c #F3F3F3",
"IX c #F4F8FC",
"UX c #FDFDFC",
"YX c None",
/* pixels */
"YXYXYXYXYXYXYXYXYXYXYXYXYXYXYXYXYXy y e 6 6 2 < < , , 1     YXYX",
"YXYXYX2 < , , q w 2 e r r r w e w r e 2 6 1 6 s :.f.L.y     YXYX",
"YXYXYXx d.s.:.a # $ $ % - 5 3 8 u h k B S J ).,XF.b.7.r     YXYX",
"YXYXYX&.mX~.8.V #X#X%XdXfXzXxXvXZXZXDXFXFXDXLXDX>.U i 9     YXYX",
"YXYXYXo.2X] L C UXDXcXzXkXkXkXjXjXdXdX%X%X&X%X*XN.' ~ 6     YXYX",
"YXYXYXo.1X] P k hXoXXXXXoXoX#X#X*X%X&X%X%XdXkXxXx.[ ~ 6     YXYX",
"YXYXYXO.3X[ I m FXkXjXjXkXkXkXkXkXkXzXzXzXcXZXSXx.{ ! 6     YXYX",
"YXYXYXo.3X{ I S UXvXxXzXkXkXkXkXkXjXdX*X%X#X&X%XZ.1.^ 9     YXYX",
"YXYXYXO.4X>.U j jX#X#X#X%XdXdXkXzXkXzXzXcXvXDXJXA.1.| 6     YXYX",
"YXYXYXO.6X>.T V PXZXZXZXAXSXDXDXFXHXDXHXHXHXHXSXI.2.| 9     YXYX",
"YXYXYXO.6X2.T G UXLXDXDXAXZXZXAXZXvXcXzXkXkXkXgXY.3. .6     YXYX",
"YXYXYXO.9X4.R m zXdXdXkXzXvXAXDXHXLXPXPXIXUXUXUXQ.6. .9     YXYX",
"YXYXYXO.9X5.R H UXIXUXUXUXUXUXUXUXUXUXUXIXKXJXBX-XC.#.9     YXYX",
"YXYXYXO.eXM./ h.UXUXIXKXBXNXnXuXyXwX5X:X!.Y.Y.Y.D.H.9.6     YXYX",
"YXYXYX+.rXB.<.x.Q.;X-XQ.Y.U.U.D.Z.Z.B.B.C.V.V.B.B.T.0.9     YXYX",
"YXYXYX+.tXB.N.B.B.B.B.C.V.V.H.H.H.D.N.z.8._ ( <.D.R.0.9     YXYX",
"YXYXYX+.tXS.Z.F.D.m.z.l.` ) Q W p s } @.r.[. X>XG.E.0.9     YXYX",
"YXYXYX+.pXU.m.) p d ..*.u.|.+X<XzXZXGXLXGXZXzXjX/.~.p.r     YXYX",
"YXYXYX%.aXT.k.*.GXlX&X.X`..XhXlXzXvXvXvXvXxXkXgX2X^.a.w     YXYX",
"YXYXYX%.aXE.k.r.LXoXl f l F *XlXzXvXvXvXvXcXzXgX4X:Xa.w     YXYX",
"YXYXYX%.bX~.c.y.LX'.f D K D 0XkXzXvXvXvXvXvXzXfX6X4Xg.9     YXYX",
"YXYXYX%.bX^.c.y.LX'.l D K D 0XlXzXcXvXvXvXxXkXkX9X6Xw.r     YXYX",
"YXYXYX%.bX2Xv.u.LX'.l K K K 0XlXzXcXvXvXvXvXkXfX9XP.M =     YXYX",
"YXYXYX%.bX2XK.u.LX'.l K K D 0XlXxXcXvXZXvXxXzXkXqXZ : .     YXYX",
"YXYXYX%.MX6XK.u.LX'.f F D D 0XkXzXcXvXvXvXvXcXkX_.: o       YXYX",
"YXYXYX%.MX6XK.u.LXXX(.XX&XdXkXzXvXZXDXAXzX<X+X}.N O         YXYX",
"YXYXYX%.VXiX=X{.FXzXkXkXjXdX<X$XOX].;.$.z 0 7 & X         YXYXYX",
"YXYXYX=.CXq.A ).fX+X|.).-.N z 0 * + o                   YXYXYXYX",
"YXYXYXn $.t 6 , 4 0 * + .                           YXYXYXYXYXYX",
"YXYXYX> @ o                             YXYXYXYXYXYXYXYXYXYXYXYX",
"YXYXYX                      YXYXYXYXYXYXYXYXYXYXYXYXYXYXYXYXYXYX",
"YXYXYX          YXYXYXYXYXYXYXYXYXYXYXYXYXYXYXYXYXYXYXYXYXYXYXYX"
};
